<?xml version="1.0" standalone="no"?>
<!DOCTYPE svg PUBLIC "-//W3C//DTD SVG 20010904//EN"
 "http://www.w3.org/TR/2001/REC-SVG-20010904/DTD/svg10.dtd">
<svg version="1.0" xmlns="http://www.w3.org/2000/svg"
 width="778.000000pt" height="261.000000pt" viewBox="0 0 778.000000 261.000000"
 preserveAspectRatio="xMidYMid meet">

<g transform="translate(0.000000,261.000000) scale(0.100000,-0.100000)"
fill="#000000" stroke="none">
<path d="M1722 1889 c-42 -77 -193 -281 -252 -339 -3 -3 -29 -32 -59 -65 -30
-33 -115 -122 -189 -197 -134 -138 -135 -138 -181 -138 -25 0 -95 -7 -156 -15
-60 -8 -113 -15 -116 -15 -10 0 -29 -50 -29 -77 0 -14 11 -45 25 -68 35 -60
71 -66 167 -25 40 16 100 50 133 75 33 25 62 45 66 45 4 0 46 -7 95 -15 91
-16 222 -56 352 -106 40 -16 85 -29 101 -29 23 0 30 -5 36 -27 26 -106 96 -97
205 26 58 65 70 72 70 42 0 -21 19 -31 59 -31 30 0 90 39 133 86 14 16 50 54
78 84 28 30 58 65 67 78 23 33 32 27 23 -14 -9 -38 -4 -64 14 -76 20 -14 71
-8 96 12 33 26 42 25 39 -2 -9 -74 48 -92 104 -35 58 58 62 65 44 85 -14 16
-12 22 29 75 24 32 44 63 44 67 0 16 -42 39 -59 32 -9 -3 -43 -27 -76 -53 -62
-48 -140 -99 -151 -99 -19 0 36 137 134 335 84 170 92 197 61 219 -31 21 -53
7 -68 -45 -25 -81 -102 -224 -174 -319 -81 -108 -275 -312 -288 -304 -16 9
-10 81 6 88 18 6 20 58 4 88 -14 26 -85 58 -130 58 -114 0 -206 -83 -259 -235
-15 -45 -20 -50 -46 -49 -16 1 -92 25 -168 54 -77 28 -167 56 -200 61 -89 13
-108 19 -104 29 2 5 35 42 74 82 76 79 303 326 344 375 14 16 54 67 90 114 35
46 70 90 77 97 31 32 33 49 8 76 -32 34 -52 33 -73 -5z m282 -706 c-20 -84
-68 -154 -162 -238 -50 -45 -62 -39 -62 33 0 53 19 95 68 152 45 54 88 80 130
80 30 0 32 -2 26 -27z m-1091 -149 c-50 -24 -73 -25 -73 -4 0 12 56 28 95 28
27 0 25 -2 -22 -24z"/>
<path d="M4080 1720 c-19 -5 -48 -12 -65 -16 -16 -4 -46 -20 -65 -36 -19 -15
-93 -69 -165 -120 -198 -140 -252 -185 -258 -214 -11 -60 57 -73 104 -19 32
36 164 144 158 128 -13 -30 -88 -123 -106 -132 -13 -6 -23 -20 -23 -31 0 -11
-36 -80 -80 -153 -44 -73 -80 -142 -80 -153 0 -12 10 -25 24 -32 28 -13 33 -8
86 97 17 36 47 87 66 114 19 27 34 54 34 59 0 5 35 25 78 44 42 19 113 53 157
76 98 49 178 78 219 78 38 0 89 -30 112 -65 16 -24 16 -27 -10 -63 -90 -128
-286 -281 -409 -320 -115 -37 -176 -45 -292 -38 -91 5 -114 4 -132 -9 -30 -21
-29 -41 1 -49 77 -19 211 -24 299 -11 152 23 247 67 383 178 128 104 141 114
123 92 -32 -38 -49 -84 -49 -130 0 -76 38 -115 127 -130 64 -10 138 28 225
115 52 52 73 68 79 58 5 -7 9 -16 9 -19 0 -12 52 -29 86 -29 21 0 77 20 140
50 58 27 104 46 102 42 -48 -96 -68 -141 -68 -157 0 -43 14 -68 44 -80 26 -11
37 -11 71 3 53 21 167 97 234 158 l53 48 -27 -52 c-22 -43 -25 -55 -15 -67 27
-33 54 -18 90 52 19 36 75 130 124 207 194 307 224 368 196 401 -23 28 -38 15
-89 -79 -122 -229 -395 -510 -563 -581 -32 -13 -38 -13 -38 -1 0 26 81 135
123 166 l41 30 14 -25 c10 -20 20 -25 40 -23 24 3 27 8 30 46 3 37 -1 47 -29
73 -39 36 -64 33 -123 -13 -34 -27 -40 -29 -48 -14 -12 22 -37 20 -78 -7 -42
-28 -202 -97 -224 -97 -30 0 -16 15 46 50 75 43 150 115 219 212 51 72 119
201 119 225 0 12 -30 33 -48 33 -28 0 -411 -413 -412 -442 0 -20 -38 -4 -62
26 -49 61 -162 80 -240 40 -34 -18 -35 -15 -3 32 15 23 25 51 25 73 0 31 -8
44 -47 83 -78 75 -130 92 -202 67 -18 -6 -34 -10 -36 -7 -2 2 27 37 65 78 39
41 77 89 86 108 15 32 15 35 -3 53 -22 22 -93 31 -143 19z m32 -97 c-61 -77
-262 -249 -262 -225 0 5 45 61 99 123 66 76 110 117 133 125 56 21 61 16 30
-23z m321 -508 c21 13 32 15 35 7 2 -7 14 -12 27 -12 22 0 22 -2 11 -35 -31
-88 -149 -151 -217 -115 -32 18 -24 62 21 119 40 51 41 51 66 34 24 -15 27
-15 57 2z"/>
<path d="M6601 1464 c-12 -19 -21 -39 -21 -43 0 -4 -16 -26 -35 -48 -45 -53
-47 -83 -5 -83 37 0 63 26 105 103 25 48 28 58 17 81 -16 36 -36 33 -61 -10z"/>
<path d="M5719 1458 c-10 -18 -8 -24 7 -35 27 -20 61 -16 67 7 3 13 -2 25 -16
35 -29 21 -44 19 -58 -7z"/>
<path d="M7170 1322 c-139 -70 -291 -169 -393 -254 l-48 -40 -24 26 c-27 29
-43 32 -69 13 -22 -16 -14 -57 11 -57 12 0 14 -7 8 -37 -4 -21 -12 -45 -19
-53 -20 -25 -5 -72 26 -81 23 -6 30 -2 57 40 41 62 83 105 172 177 95 78 292
216 346 243 49 24 61 40 42 52 -21 13 -28 11 -109 -29z"/>
<path d="M2886 1265 c-8 -8 -29 -15 -46 -15 -53 0 -88 -29 -126 -104 -55 -111
-44 -201 31 -232 66 -27 131 10 212 120 l36 48 12 -28 c10 -26 9 -29 -7 -32
-11 -2 -18 -12 -18 -26 0 -17 16 -30 75 -61 89 -46 169 -58 210 -31 57 37 24
75 -127 147 -45 21 -47 24 -32 40 23 25 99 59 133 59 27 0 41 14 41 44 0 6
-14 20 -30 30 -41 23 -72 15 -153 -39 l-65 -43 5 37 c4 30 0 43 -22 69 -23 27
-34 32 -70 32 -25 0 -50 -6 -59 -15z m66 -84 c-1 -12 -9 -32 -17 -44 -14 -20
-15 -19 -15 27 0 40 3 47 18 44 11 -3 16 -12 14 -27z m-118 -57 c-10 -40 1
-55 32 -44 15 6 29 9 31 6 2 -2 -18 -28 -46 -57 -42 -46 -52 -52 -68 -43 -36
22 -23 102 25 156 19 23 34 13 26 -18z"/>
<path d="M5775 1252 c-61 -38 -75 -79 -33 -100 22 -10 33 -10 50 -1 13 6 -4
-16 -36 -49 -33 -34 -72 -66 -88 -73 -31 -13 -48 -53 -30 -71 18 -18 228 -34
263 -21 23 9 38 8 69 -4 36 -15 43 -14 83 1 65 25 102 67 101 119 0 23 -3 54
-8 69 -7 24 -5 29 17 37 44 17 50 64 10 84 -25 13 -33 12 -71 -4 -58 -25 -68
-53 -43 -124 19 -54 19 -55 -1 -80 -24 -30 -62 -33 -85 -5 -22 25 -34 25 -66
-1 -20 -15 -38 -19 -73 -17 l-46 3 41 45 c52 57 71 98 71 149 0 30 -5 43 -19
51 -30 15 -73 12 -106 -8z"/>
<path d="M5575 1193 c-12 -33 -115 -200 -130 -213 -19 -16 -19 -66 0 -74 29
-11 55 10 104 85 92 143 108 189 72 209 -28 14 -38 13 -46 -7z"/>
<path d="M6290 1091 c-45 -30 -115 -124 -127 -169 -3 -14 -1 -32 4 -41 11 -18
73 -28 73 -12 0 5 30 30 66 56 l66 46 -7 -49 c-5 -39 -3 -53 11 -66 9 -9 23
-15 31 -12 8 3 19 6 24 6 13 0 11 144 -2 157 -7 7 -8 17 -1 29 12 24 -1 59
-27 73 -33 18 -66 13 -111 -18z"/>
</g>
</svg>
